<svg width="40" height="40" viewBox="0 0 40 40" fill="none" xmlns="http://www.w3.org/2000/svg">
<path d="M20 0.46875C23.8629 0.46875 27.6391 1.61424 30.851 3.76036C34.0629 5.90648 36.5662 8.95685 38.0445 12.5257C39.5228 16.0946 39.9096 20.0217 39.156 23.8104C38.4023 27.599 36.5422 31.0792 33.8107 33.8107C31.0792 36.5422 27.599 38.4023 23.8103 39.156C20.0217 39.9096 16.0946 39.5228 12.5257 38.0445C8.95684 36.5662 5.90647 34.0629 3.76035 30.851C1.61423 27.6391 0.468742 23.8629 0.468742 20C0.474426 14.8217 2.534 9.85719 6.19559 6.1956C9.85718 2.53401 14.8217 0.474437 20 0.46875ZM20 37.9688C23.5539 37.9688 27.0279 36.9149 29.9829 34.9405C32.9378 32.966 35.2409 30.1597 36.601 26.8763C37.961 23.593 38.3168 19.9801 37.6235 16.4945C36.9301 13.0089 35.2188 9.80715 32.7058 7.29417C30.1928 4.7812 26.9911 3.06984 23.5055 2.37651C20.0199 1.68319 16.407 2.03903 13.1236 3.39904C9.84029 4.75905 7.03395 7.06215 5.05952 10.0171C3.08509 12.972 2.03124 16.4461 2.03124 20C2.03641 24.764 3.9312 29.3314 7.29988 32.7001C10.6686 36.0688 15.236 37.9636 20 37.9688ZM11.6348 19.4473C11.5621 19.5198 11.5045 19.606 11.4652 19.7008C11.4259 19.7957 11.4056 19.8973 11.4056 20C11.4056 20.1027 11.4259 20.2043 11.4652 20.2992C11.5045 20.394 11.5621 20.4802 11.6348 20.5527L17.8848 26.8027C18.0314 26.9493 18.2302 27.0317 18.4375 27.0317C18.6448 27.0317 18.8436 26.9493 18.9902 26.8027C19.1368 26.6561 19.2192 26.4573 19.2192 26.25C19.2192 26.0427 19.1368 25.8439 18.9902 25.6973L14.0742 20.7812H27.8125C28.0197 20.7812 28.2184 20.6989 28.3649 20.5524C28.5114 20.4059 28.5937 20.2072 28.5937 20C28.5937 19.7928 28.5114 19.5941 28.3649 19.4476C28.2184 19.3011 28.0197 19.2188 27.8125 19.2188H14.0742L18.9902 14.3027C19.1368 14.1561 19.2192 13.9573 19.2192 13.75C19.2192 13.5427 19.1368 13.3439 18.9902 13.1973C18.8436 13.0507 18.6448 12.9683 18.4375 12.9683C18.2302 12.9683 18.0314 13.0507 17.8848 13.1973L11.6348 19.4473Z" fill="black" fill-opacity="0.8"/>
</svg>

