<svg width="34" height="35" viewBox="0 0 34 35" fill="none" xmlns="http://www.w3.org/2000/svg">
<path fill-rule="evenodd" clip-rule="evenodd" d="M17 30.625C14.4041 30.625 11.8665 29.8552 9.70815 28.413C7.54975 26.9708 5.86749 24.921 4.87409 22.5227C3.88069 20.1244 3.62077 17.4854 4.1272 14.9394C4.63363 12.3934 5.88367 10.0548 7.71923 8.21922C9.5548 6.38366 11.8934 5.13362 14.4394 4.62719C16.9854 4.12076 19.6244 4.38068 22.0227 5.37408C24.421 6.36748 26.4709 8.04975 27.913 10.2081C29.3552 12.3665 30.125 14.9041 30.125 17.5C30.1213 20.9798 28.7373 24.3161 26.2767 26.7767C23.8161 29.2373 20.4798 30.6213 17 30.625ZM22.4847 16.7825C22.3901 16.5546 22.2514 16.3476 22.0766 16.1734L15.8297 9.92031C15.4775 9.56807 14.9997 9.37018 14.5016 9.37018C14.0034 9.37018 13.5257 9.56807 13.1734 9.92031C12.8212 10.2726 12.6233 10.7503 12.6233 11.2484C12.6233 11.7466 12.8212 12.2243 13.1734 12.5766L18.0938 17.5L13.1703 22.4234C12.8181 22.7757 12.6202 23.2534 12.6202 23.7516C12.6202 24.2497 12.8181 24.7274 13.1703 25.0797C13.5226 25.4319 14.0003 25.6298 14.4984 25.6298C14.9966 25.6298 15.4743 25.4319 15.8266 25.0797L22.0766 18.8297C22.2514 18.6555 22.3901 18.4485 22.4847 18.2206C22.5793 17.9927 22.628 17.7483 22.628 17.5016C22.628 17.2548 22.5793 17.0104 22.4847 16.7825Z" fill="#262626"/>
<path fill-rule="evenodd" clip-rule="evenodd" d="M7.62476 3.46895C10.3998 1.6147 13.6624 0.625 17 0.625C21.474 0.629963 25.7634 2.40945 28.927 5.57305C32.0906 8.73666 33.87 13.026 33.875 17.5C33.875 20.8376 32.8853 24.1002 31.0311 26.8752C29.1768 29.6503 26.5413 31.8132 23.4578 33.0905C20.3743 34.3677 16.9813 34.7019 13.7079 34.0508C10.4344 33.3996 7.42759 31.7924 5.06758 29.4324C2.70757 27.0724 1.10038 24.0656 0.449256 20.7921C-0.20187 17.5187 0.132312 14.1257 1.40954 11.0422C2.68677 7.95871 4.84968 5.3232 7.62476 3.46895ZM9.70815 28.413C11.8665 29.8552 14.4041 30.625 17 30.625C20.4798 30.6213 23.8161 29.2373 26.2767 26.7767C28.7373 24.3161 30.1213 20.9798 30.125 17.5C30.125 14.9041 29.3552 12.3665 27.913 10.2081C26.4709 8.04975 24.421 6.36748 22.0227 5.37408C19.6244 4.38068 16.9854 4.12076 14.4394 4.62719C11.8934 5.13362 9.5548 6.38366 7.71923 8.21922C5.88367 10.0548 4.63363 12.3934 4.1272 14.9394C3.62077 17.4854 3.88069 20.1244 4.87409 22.5227C5.86749 24.921 7.54975 26.9708 9.70815 28.413Z" fill="#262626"/>
</svg>
