<svg width="128" height="13" viewBox="0 0 128 13" fill="none" xmlns="http://www.w3.org/2000/svg">
<path opacity="0.46" d="M0.575 12V1.5H5.285C6.495 1.5 7.425 1.745 8.075 2.235C8.725 2.715 9.05 3.375 9.05 4.215C9.05 4.785 8.92 5.265 8.66 5.655C8.41 6.045 8.07 6.345 7.64 6.555C7.21 6.765 6.745 6.87 6.245 6.87L6.515 6.42C7.115 6.42 7.645 6.525 8.105 6.735C8.565 6.945 8.93 7.255 9.2 7.665C9.47 8.065 9.605 8.565 9.605 9.165C9.605 10.065 9.265 10.765 8.585 11.265C7.915 11.755 6.915 12 5.585 12H0.575ZM2.075 10.785H5.525C6.355 10.785 6.99 10.645 7.43 10.365C7.87 10.085 8.09 9.645 8.09 9.045C8.09 8.435 7.87 7.99 7.43 7.71C6.99 7.43 6.355 7.29 5.525 7.29H1.94V6.075H5.15C5.91 6.075 6.5 5.935 6.92 5.655C7.34 5.375 7.55 4.955 7.55 4.395C7.55 3.835 7.34 3.415 6.92 3.135C6.5 2.855 5.91 2.715 5.15 2.715H2.075V10.785ZM15.8625 3.975C16.5125 3.975 17.0825 4.1 17.5725 4.35C18.0725 4.6 18.4625 4.98 18.7425 5.49C19.0225 6 19.1625 6.645 19.1625 7.425V12H17.7225V7.59C17.7225 6.82 17.5325 6.24 17.1525 5.85C16.7825 5.46 16.2575 5.265 15.5775 5.265C15.0675 5.265 14.6225 5.365 14.2425 5.565C13.8625 5.765 13.5675 6.06 13.3575 6.45C13.1575 6.84 13.0575 7.325 13.0575 7.905V12H11.6175V0.869999H13.0575V6.195L12.7725 5.625C13.0325 5.105 13.4325 4.7 13.9725 4.41C14.5125 4.12 15.1425 3.975 15.8625 3.975ZM21.7275 12V4.05H23.1675V12H21.7275ZM22.4475 2.52C22.1675 2.52 21.9325 2.43 21.7425 2.25C21.5625 2.07 21.4725 1.85 21.4725 1.59C21.4725 1.32 21.5625 1.095 21.7425 0.915C21.9325 0.735 22.1675 0.645 22.4475 0.645C22.7275 0.645 22.9575 0.735 23.1375 0.915C23.3275 1.085 23.4225 1.3 23.4225 1.56C23.4225 1.83 23.3325 2.06 23.1525 2.25C22.9725 2.43 22.7375 2.52 22.4475 2.52ZM27.902 12L24.422 4.05H25.922L29.012 11.25H28.292L31.442 4.05H32.852L29.372 12H27.902ZM37.4161 12.09C36.5661 12.09 35.8161 11.915 35.1661 11.565C34.5261 11.215 34.0261 10.735 33.6661 10.125C33.3161 9.515 33.1411 8.815 33.1411 8.025C33.1411 7.235 33.3111 6.535 33.6511 5.925C34.0011 5.315 34.4761 4.84 35.0761 4.5C35.6861 4.15 36.3711 3.975 37.1311 3.975C37.9011 3.975 38.5811 4.145 39.1711 4.485C39.7611 4.825 40.2211 5.305 40.5511 5.925C40.8911 6.535 41.0611 7.25 41.0611 8.07C41.0611 8.13 41.0561 8.2 41.0461 8.28C41.0461 8.36 41.0411 8.435 41.0311 8.505H34.2661V7.47H40.2811L39.6961 7.83C39.7061 7.32 39.6011 6.865 39.3811 6.465C39.1611 6.065 38.8561 5.755 38.4661 5.535C38.0861 5.305 37.6411 5.19 37.1311 5.19C36.6311 5.19 36.1861 5.305 35.7961 5.535C35.4061 5.755 35.1011 6.07 34.8811 6.48C34.6611 6.88 34.5511 7.34 34.5511 7.86V8.1C34.5511 8.63 34.6711 9.105 34.9111 9.525C35.1611 9.935 35.5061 10.255 35.9461 10.485C36.3861 10.715 36.8911 10.83 37.4611 10.83C37.9311 10.83 38.3561 10.75 38.7361 10.59C39.1261 10.43 39.4661 10.19 39.7561 9.87L40.5511 10.8C40.1911 11.22 39.7411 11.54 39.2011 11.76C38.6711 11.98 38.0761 12.09 37.4161 12.09ZM46.4257 12.09C45.6157 12.09 44.8907 11.915 44.2507 11.565C43.6207 11.215 43.1257 10.735 42.7657 10.125C42.4057 9.515 42.2257 8.815 42.2257 8.025C42.2257 7.235 42.4057 6.535 42.7657 5.925C43.1257 5.315 43.6207 4.84 44.2507 4.5C44.8907 4.15 45.6157 3.975 46.4257 3.975C47.1457 3.975 47.7857 4.12 48.3457 4.41C48.9157 4.69 49.3557 5.11 49.6657 5.67L48.5707 6.375C48.3107 5.985 47.9907 5.7 47.6107 5.52C47.2407 5.33 46.8407 5.235 46.4107 5.235C45.8907 5.235 45.4257 5.35 45.0157 5.58C44.6057 5.81 44.2807 6.135 44.0407 6.555C43.8007 6.965 43.6807 7.455 43.6807 8.025C43.6807 8.595 43.8007 9.09 44.0407 9.51C44.2807 9.93 44.6057 10.255 45.0157 10.485C45.4257 10.715 45.8907 10.83 46.4107 10.83C46.8407 10.83 47.2407 10.74 47.6107 10.56C47.9907 10.37 48.3107 10.08 48.5707 9.69L49.6657 10.38C49.3557 10.93 48.9157 11.355 48.3457 11.655C47.7857 11.945 47.1457 12.09 46.4257 12.09ZM51.3275 12V0.869999H52.7675V12H51.3275ZM58.762 12.09C58.082 12.09 57.482 11.965 56.962 11.715C56.452 11.465 56.052 11.085 55.762 10.575C55.482 10.055 55.342 9.405 55.342 8.625V4.05H56.782V8.46C56.782 9.24 56.967 9.825 57.337 10.215C57.717 10.605 58.247 10.8 58.927 10.8C59.427 10.8 59.862 10.7 60.232 10.5C60.602 10.29 60.887 9.99 61.087 9.6C61.287 9.2 61.387 8.72 61.387 8.16V4.05H62.827V12H61.462V9.855L61.687 10.425C61.427 10.955 61.037 11.365 60.517 11.655C59.997 11.945 59.412 12.09 58.762 12.09ZM67.7483 12.09C67.0883 12.09 66.4583 12 65.8583 11.82C65.2683 11.64 64.8033 11.42 64.4633 11.16L65.0633 10.02C65.4033 10.25 65.8233 10.445 66.3233 10.605C66.8233 10.765 67.3333 10.845 67.8533 10.845C68.5233 10.845 69.0033 10.75 69.2933 10.56C69.5933 10.37 69.7433 10.105 69.7433 9.765C69.7433 9.515 69.6533 9.32 69.4733 9.18C69.2933 9.04 69.0533 8.935 68.7533 8.865C68.4633 8.795 68.1383 8.735 67.7783 8.685C67.4183 8.625 67.0583 8.555 66.6983 8.475C66.3383 8.385 66.0083 8.265 65.7083 8.115C65.4083 7.955 65.1683 7.74 64.9883 7.47C64.8083 7.19 64.7183 6.82 64.7183 6.36C64.7183 5.88 64.8533 5.46 65.1233 5.1C65.3933 4.74 65.7733 4.465 66.2633 4.275C66.7633 4.075 67.3533 3.975 68.0333 3.975C68.5533 3.975 69.0783 4.04 69.6083 4.17C70.1483 4.29 70.5883 4.465 70.9283 4.695L70.3133 5.835C69.9533 5.595 69.5783 5.43 69.1883 5.34C68.7983 5.25 68.4083 5.205 68.0183 5.205C67.3883 5.205 66.9183 5.31 66.6083 5.52C66.2983 5.72 66.1433 5.98 66.1433 6.3C66.1433 6.57 66.2333 6.78 66.4133 6.93C66.6033 7.07 66.8433 7.18 67.1333 7.26C67.4333 7.34 67.7633 7.41 68.1233 7.47C68.4833 7.52 68.8433 7.59 69.2033 7.68C69.5633 7.76 69.8883 7.875 70.1783 8.025C70.4783 8.175 70.7183 8.385 70.8983 8.655C71.0883 8.925 71.1833 9.285 71.1833 9.735C71.1833 10.215 71.0433 10.63 70.7633 10.98C70.4833 11.33 70.0883 11.605 69.5783 11.805C69.0683 11.995 68.4583 12.09 67.7483 12.09ZM75.613 12.09C74.813 12.09 74.193 11.875 73.753 11.445C73.313 11.015 73.093 10.4 73.093 9.6V2.31H74.533V9.54C74.533 9.97 74.638 10.3 74.848 10.53C75.068 10.76 75.378 10.875 75.778 10.875C76.228 10.875 76.603 10.75 76.903 10.5L77.353 11.535C77.133 11.725 76.868 11.865 76.558 11.955C76.258 12.045 75.943 12.09 75.613 12.09ZM71.743 5.235V4.05H76.813V5.235H71.743ZM82.2702 12.09C81.4202 12.09 80.6702 11.915 80.0202 11.565C79.3802 11.215 78.8802 10.735 78.5202 10.125C78.1702 9.515 77.9952 8.815 77.9952 8.025C77.9952 7.235 78.1652 6.535 78.5052 5.925C78.8552 5.315 79.3302 4.84 79.9302 4.5C80.5402 4.15 81.2252 3.975 81.9852 3.975C82.7552 3.975 83.4352 4.145 84.0252 4.485C84.6152 4.825 85.0752 5.305 85.4052 5.925C85.7452 6.535 85.9152 7.25 85.9152 8.07C85.9152 8.13 85.9102 8.2 85.9002 8.28C85.9002 8.36 85.8952 8.435 85.8852 8.505H79.1202V7.47H85.1352L84.5502 7.83C84.5602 7.32 84.4552 6.865 84.2352 6.465C84.0152 6.065 83.7102 5.755 83.3202 5.535C82.9402 5.305 82.4952 5.19 81.9852 5.19C81.4852 5.19 81.0402 5.305 80.6502 5.535C80.2602 5.755 79.9552 6.07 79.7352 6.48C79.5152 6.88 79.4052 7.34 79.4052 7.86V8.1C79.4052 8.63 79.5252 9.105 79.7652 9.525C80.0152 9.935 80.3602 10.255 80.8002 10.485C81.2402 10.715 81.7452 10.83 82.3152 10.83C82.7852 10.83 83.2102 10.75 83.5902 10.59C83.9802 10.43 84.3202 10.19 84.6102 9.87L85.4052 10.8C85.0452 11.22 84.5952 11.54 84.0552 11.76C83.5252 11.98 82.9302 12.09 82.2702 12.09ZM87.8148 12V4.05H89.1948V6.21L89.0598 5.67C89.2798 5.12 89.6498 4.7 90.1698 4.41C90.6898 4.12 91.3298 3.975 92.0898 3.975V5.37C92.0298 5.36 91.9698 5.355 91.9098 5.355C91.8598 5.355 91.8098 5.355 91.7598 5.355C90.9898 5.355 90.3798 5.585 89.9298 6.045C89.4798 6.505 89.2548 7.17 89.2548 8.04V12H87.8148ZM94.0657 12.09C93.7857 12.09 93.5457 11.995 93.3457 11.805C93.1457 11.605 93.0457 11.355 93.0457 11.055C93.0457 10.755 93.1457 10.51 93.3457 10.32C93.5457 10.13 93.7857 10.035 94.0657 10.035C94.3357 10.035 94.5657 10.13 94.7557 10.32C94.9557 10.51 95.0557 10.755 95.0557 11.055C95.0557 11.355 94.9557 11.605 94.7557 11.805C94.5657 11.995 94.3357 12.09 94.0657 12.09ZM100.308 12.09C99.4983 12.09 98.7733 11.915 98.1333 11.565C97.5033 11.215 97.0083 10.735 96.6483 10.125C96.2883 9.515 96.1083 8.815 96.1083 8.025C96.1083 7.235 96.2883 6.535 96.6483 5.925C97.0083 5.315 97.5033 4.84 98.1333 4.5C98.7733 4.15 99.4983 3.975 100.308 3.975C101.028 3.975 101.668 4.12 102.228 4.41C102.798 4.69 103.238 5.11 103.548 5.67L102.453 6.375C102.193 5.985 101.873 5.7 101.493 5.52C101.123 5.33 100.723 5.235 100.293 5.235C99.7733 5.235 99.3083 5.35 98.8983 5.58C98.4883 5.81 98.1633 6.135 97.9233 6.555C97.6833 6.965 97.5633 7.455 97.5633 8.025C97.5633 8.595 97.6833 9.09 97.9233 9.51C98.1633 9.93 98.4883 10.255 98.8983 10.485C99.3083 10.715 99.7733 10.83 100.293 10.83C100.723 10.83 101.123 10.74 101.493 10.56C101.873 10.37 102.193 10.08 102.453 9.69L103.548 10.38C103.238 10.93 102.798 11.355 102.228 11.655C101.668 11.945 101.028 12.09 100.308 12.09ZM108.6 12.09C107.8 12.09 107.09 11.915 106.47 11.565C105.85 11.215 105.36 10.735 105 10.125C104.64 9.505 104.46 8.805 104.46 8.025C104.46 7.235 104.64 6.535 105 5.925C105.36 5.315 105.85 4.84 106.47 4.5C107.09 4.15 107.8 3.975 108.6 3.975C109.39 3.975 110.095 4.15 110.715 4.5C111.345 4.84 111.835 5.315 112.185 5.925C112.545 6.525 112.725 7.225 112.725 8.025C112.725 8.815 112.545 9.515 112.185 10.125C111.835 10.735 111.345 11.215 110.715 11.565C110.095 11.915 109.39 12.09 108.6 12.09ZM108.6 10.83C109.11 10.83 109.565 10.715 109.965 10.485C110.375 10.255 110.695 9.93 110.925 9.51C111.155 9.08 111.27 8.585 111.27 8.025C111.27 7.455 111.155 6.965 110.925 6.555C110.695 6.135 110.375 5.81 109.965 5.58C109.565 5.35 109.11 5.235 108.6 5.235C108.09 5.235 107.635 5.35 107.235 5.58C106.835 5.81 106.515 6.135 106.275 6.555C106.035 6.965 105.915 7.455 105.915 8.025C105.915 8.585 106.035 9.08 106.275 9.51C106.515 9.93 106.835 10.255 107.235 10.485C107.635 10.715 108.09 10.83 108.6 10.83ZM124.562 3.975C125.202 3.975 125.767 4.1 126.257 4.35C126.747 4.6 127.127 4.98 127.397 5.49C127.677 6 127.817 6.645 127.817 7.425V12H126.377V7.59C126.377 6.82 126.197 6.24 125.837 5.85C125.477 5.46 124.972 5.265 124.322 5.265C123.842 5.265 123.422 5.365 123.062 5.565C122.702 5.765 122.422 6.06 122.222 6.45C122.032 6.84 121.937 7.325 121.937 7.905V12H120.497V7.59C120.497 6.82 120.317 6.24 119.957 5.85C119.607 5.46 119.102 5.265 118.442 5.265C117.972 5.265 117.557 5.365 117.197 5.565C116.837 5.765 116.557 6.06 116.357 6.45C116.157 6.84 116.057 7.325 116.057 7.905V12H114.617V4.05H115.997V6.165L115.772 5.625C116.022 5.105 116.407 4.7 116.927 4.41C117.447 4.12 118.052 3.975 118.742 3.975C119.502 3.975 120.157 4.165 120.707 4.545C121.257 4.915 121.617 5.48 121.787 6.24L121.202 6C121.442 5.39 121.862 4.9 122.462 4.53C123.062 4.16 123.762 3.975 124.562 3.975Z" fill="#262626"/>
</svg>
