<svg width="43" height="31" viewBox="0 0 43 31" fill="none" xmlns="http://www.w3.org/2000/svg">
<path d="M8.99086 25.584C1.99349 19.1477 2.68833 8.39278 8.99086 5.54634C14.4788 3.0678 25.0444 4.06188 26.3771 5.13444C31.5362 9.2867 27.3727 14.0787 26.489 14.7185M8.99086 25.584C2.3416 19.2699 7.87886 16.5055 14.7006 15.3966M8.99086 25.584C8.22038 18.8703 9.6209 16.777 14.7006 15.3966M26.3771 14.7972C25.3896 14.6918 24.967 14.6911 26.489 14.7185M26.3771 14.7972C26.3771 14.7972 26.4174 14.7703 26.489 14.7185M26.3771 14.7972C23.781 14.6567 18.9872 14.6998 14.7006 15.3966M16.8932 27C16.8932 27 22.5044 26.9596 31.8125 26.9949C41.1205 27.0303 41.4758 15.6638 32.365 15.1277C23.2542 14.5917 27.6711 14.7397 26.489 14.7185" stroke="#FF9142" stroke-width="8" stroke-linecap="round" stroke-linejoin="round"/>
</svg>
