<svg width="199" height="160" viewBox="0 0 199 160" fill="none" xmlns="http://www.w3.org/2000/svg">
<path d="M199 0L187.455 0.220401L193.418 10.1084L199 0ZM75.5336 159.07C78.0053 124.012 76.087 98.5886 71.4985 80.5381C66.911 62.492 59.628 51.7195 51.2942 46.1229C42.9379 40.5113 33.6823 40.2086 25.411 42.7766C17.1619 45.3378 9.83497 50.7657 5.20155 56.7326C0.626158 62.6247 -1.57622 69.4162 1.26422 74.5089C4.11702 79.6238 11.6555 82.313 24.7964 80.98C51.2258 78.2992 102.222 59.2069 191.758 5.53522L190.73 3.81981C101.197 57.4896 50.5388 76.3586 24.5946 78.9902C11.5486 80.3135 5.22064 77.4966 3.01091 73.5347C0.788799 69.5506 2.3278 63.6943 6.78122 57.9592C11.1766 52.2989 18.166 47.1202 26.0041 44.6867C33.82 42.26 42.4227 42.5745 50.1791 47.7833C57.9581 53.0072 65.0423 63.2585 69.5601 81.0309C74.0769 98.799 76.002 123.989 73.5386 158.93L75.5336 159.07Z" fill="#FF9142"/>
</svg>
